# xmcd CD database file
#
# Track frame offsets:
#	150
#	14412
#	29132
#	53130
#	70255
#	89715
#	103957
#	129315
#	147765
#	178320
#	194717
#	213825
#
# Disc length: 3167 seconds
#
# Revision: 2
# Processed by: cddbd v1.5.2PL0 Copyright (c) Steve Scherf et al.
# Submitted via: CDex 1.99.1
#
DISCID=bd0c5d0c
DTITLE=James Cotton - Mighty Long Time
DYEAR=1991
DGENRE=Blues
TTITLE0=Straighten Up Baby
TTITLE1=Everything Gonna Be Alright
TTITLE2=Black Nights
TTITLE3=Blow Wind Blow
TTITLE4=Sugar Sweet
TTITLE5=Moanin' at Midnight
TTITLE6=Baby Please
TTITLE7=Hold Me in Your Arms
TTITLE8=Call It Stormy Monday
TTITLE9=Three Hundred Pounds of Joy
TTITLE10=Northside Cadillac
TTITLE11=Mighty Long Time
EXTD=YEAR: 1991
EXTT0=
EXTT1=
EXTT2=
EXTT3=
EXTT4=
EXTT5=
EXTT6=
EXTT7=
EXTT8=
EXTT9=
EXTT10=
EXTT11=
PLAYORDER=
